<svg clip-rule="evenodd" fill-rule="evenodd" stroke-linejoin="round" stroke-miterlimit="1.41421" viewBox="0 0 126 126" xmlns="http://www.w3.org/2000/svg"><path d="m99.961 55.68c-20.246-12.023-53.641-13.129-72.968-7.262-3.103.941-6.385-.811-7.326-3.914-.94-3.105.81-6.385 3.916-7.329 22.186-6.735 59.067-5.433 82.374 8.402 2.792 1.657 3.707 5.262 2.053 8.049-1.656 2.791-5.265 3.712-8.049 2.054zm-.663 17.808c-1.421 2.305-4.434 3.028-6.736 1.613-16.879-10.375-42.617-13.38-62.585-7.32-2.59.783-5.325-.677-6.111-3.261-.781-2.59.68-5.32 3.265-6.108 22.812-6.921 51.17-3.569 70.556 8.344 2.301 1.418 3.026 4.433 1.611 6.732zm-7.686 17.102c-1.128 1.851-3.538 2.431-5.382 1.303-14.75-9.014-33.314-11.05-55.176-6.056-2.107.483-4.206-.837-4.687-2.944-.482-2.106.833-4.206 2.944-4.687 23.925-5.469 44.448-3.115 61.002 7.001 1.846 1.127 2.427 3.538 1.299 5.383zm-28.804-90.59c-34.687 0-62.808 28.12-62.808 62.807 0 34.69 28.121 62.808 62.808 62.808 34.688 0 62.807-28.118 62.807-62.808 0-34.687-28.119-62.807-62.807-62.807z" fill="#1ed760" fill-rule="nonzero"/></svg>